<mxfile host="Electron" modified="2024-02-27T02:25:13.700Z" agent="Mozilla/5.0 (X11; Linux x86_64) AppleWebKit/537.36 (KHTML, like Gecko) draw.io/23.1.5 Chrome/120.0.6099.109 Electron/28.1.0 Safari/537.36" etag="zZb8iSjrlhW61DWSrt-y" version="23.1.5" type="device">
  <diagram name="Page-1" id="okQUsLcCIn6qNMJXYvbM">
    <mxGraphModel dx="6584" dy="1415" grid="1" gridSize="10" guides="1" tooltips="1" connect="1" arrows="1" fold="1" page="1" pageScale="1" pageWidth="850" pageHeight="1100" math="0" shadow="0">
      <root>
        <mxCell id="0" />
        <mxCell id="1" parent="0" />
        <mxCell id="Cx0IqI09Y8lKUOxxlhVQ-1" value="&lt;font style=&quot;&quot;&gt;&lt;font size=&quot;1&quot; color=&quot;#ff8000&quot;&gt;&lt;b style=&quot;font-size: 24px;&quot;&gt;(0) Choose an ActiveController&lt;/b&gt;&lt;/font&gt;&lt;br&gt;&lt;/font&gt;" style="text;html=1;align=center;verticalAlign=middle;whiteSpace=wrap;rounded=0;" parent="1" vertex="1">
          <mxGeometry x="-2090" y="930" width="360" height="40" as="geometry" />
        </mxCell>
        <mxCell id="6KPUGdE8I9idsuVsTaAl-1" value="&lt;font style=&quot;font-size: 48px;&quot;&gt;Active Controller&lt;/font&gt;" style="rounded=1;whiteSpace=wrap;html=1;verticalAlign=bottom;" vertex="1" parent="1">
          <mxGeometry x="-1890" y="150" width="780" height="660" as="geometry" />
        </mxCell>
        <mxCell id="6KPUGdE8I9idsuVsTaAl-2" value="" style="endArrow=classic;html=1;rounded=0;strokeWidth=5;strokeColor=#00c800;exitX=0.5;exitY=0;exitDx=0;exitDy=0;entryX=0.5;entryY=0;entryDx=0;entryDy=0;" edge="1" parent="1" source="6KPUGdE8I9idsuVsTaAl-10">
          <mxGeometry width="50" height="50" relative="1" as="geometry">
            <mxPoint x="-1430" y="150" as="sourcePoint" />
            <mxPoint x="-1500" y="90" as="targetPoint" />
          </mxGeometry>
        </mxCell>
        <mxCell id="6KPUGdE8I9idsuVsTaAl-3" value="" style="endArrow=classic;html=1;rounded=0;strokeWidth=5;strokeColor=#f000f0;exitX=0.5;exitY=0;exitDx=0;exitDy=0;entryX=0.5;entryY=0;entryDx=0;entryDy=0;" edge="1" parent="1" source="6KPUGdE8I9idsuVsTaAl-13">
          <mxGeometry width="50" height="50" relative="1" as="geometry">
            <mxPoint x="-890" y="720" as="sourcePoint" />
            <mxPoint x="-1230" y="90" as="targetPoint" />
          </mxGeometry>
        </mxCell>
        <mxCell id="6KPUGdE8I9idsuVsTaAl-4" value="" style="endArrow=classic;html=1;rounded=0;strokeWidth=5;strokeColor=#0000f0;entryX=0.25;entryY=0;entryDx=0;entryDy=0;exitX=0.25;exitY=1;exitDx=0;exitDy=0;" edge="1" parent="1">
          <mxGeometry width="50" height="50" relative="1" as="geometry">
            <mxPoint x="-1815" y="870" as="sourcePoint" />
            <mxPoint x="-1815" y="750" as="targetPoint" />
          </mxGeometry>
        </mxCell>
        <mxCell id="6KPUGdE8I9idsuVsTaAl-6" value="&lt;font style=&quot;font-size: 24px;&quot;&gt;Leg&lt;/font&gt;" style="rounded=1;whiteSpace=wrap;html=1;" vertex="1" parent="1">
          <mxGeometry x="-1830" y="690" width="120" height="60" as="geometry" />
        </mxCell>
        <mxCell id="6KPUGdE8I9idsuVsTaAl-7" value="&lt;font style=&quot;font-size: 24px;&quot;&gt;Remote&lt;br&gt;Leg&lt;/font&gt;" style="rounded=0;whiteSpace=wrap;html=1;" vertex="1" parent="1">
          <mxGeometry x="-1650" y="690" width="120" height="60" as="geometry" />
        </mxCell>
        <mxCell id="6KPUGdE8I9idsuVsTaAl-10" value="&lt;font style=&quot;font-size: 24px;&quot;&gt;nvmeof target&lt;/font&gt;" style="rounded=0;whiteSpace=wrap;html=1;" vertex="1" parent="1">
          <mxGeometry x="-1560" y="210" width="120" height="60" as="geometry" />
        </mxCell>
        <mxCell id="6KPUGdE8I9idsuVsTaAl-11" value="" style="endArrow=classic;html=1;rounded=0;strokeWidth=5;strokeColor=#808080;exitX=0.5;exitY=0;exitDx=0;exitDy=0;entryX=0.5;entryY=1;entryDx=0;entryDy=0;" edge="1" parent="1" source="6KPUGdE8I9idsuVsTaAl-5" target="6KPUGdE8I9idsuVsTaAl-10">
          <mxGeometry width="50" height="50" relative="1" as="geometry">
            <mxPoint x="-1570" y="310" as="sourcePoint" />
            <mxPoint x="-1520" y="260" as="targetPoint" />
          </mxGeometry>
        </mxCell>
        <mxCell id="6KPUGdE8I9idsuVsTaAl-12" value="" style="endArrow=classic;html=1;rounded=0;strokeWidth=5;strokeColor=#f000f0;entryX=1;entryY=0;entryDx=0;entryDy=0;exitX=0;exitY=1;exitDx=0;exitDy=0;" edge="1" parent="1">
          <mxGeometry width="50" height="50" relative="1" as="geometry">
            <mxPoint x="-1410" y="870" as="sourcePoint" />
            <mxPoint x="-1410" y="750" as="targetPoint" />
          </mxGeometry>
        </mxCell>
        <mxCell id="6KPUGdE8I9idsuVsTaAl-13" value="&lt;font style=&quot;font-size: 24px;&quot;&gt;Leg&lt;br&gt;&lt;/font&gt;" style="rounded=1;whiteSpace=wrap;html=1;" vertex="1" parent="1">
          <mxGeometry x="-1290" y="690" width="120" height="60" as="geometry" />
        </mxCell>
        <mxCell id="6KPUGdE8I9idsuVsTaAl-14" value="&lt;font style=&quot;font-size: 24px;&quot;&gt;Remote&lt;br&gt;Leg&lt;br&gt;&lt;/font&gt;" style="rounded=0;whiteSpace=wrap;html=1;" vertex="1" parent="1">
          <mxGeometry x="-1470" y="690" width="120" height="60" as="geometry" />
        </mxCell>
        <mxCell id="6KPUGdE8I9idsuVsTaAl-17" value="" style="endArrow=classic;html=1;rounded=0;strokeWidth=5;strokeColor=#0000f0;entryX=0.75;entryY=0;entryDx=0;entryDy=0;exitX=0.75;exitY=1;exitDx=0;exitDy=0;" edge="1" parent="1">
          <mxGeometry width="50" height="50" relative="1" as="geometry">
            <mxPoint x="-1785" y="870" as="sourcePoint" />
            <mxPoint x="-1785" y="750" as="targetPoint" />
          </mxGeometry>
        </mxCell>
        <mxCell id="6KPUGdE8I9idsuVsTaAl-18" value="" style="endArrow=classic;html=1;rounded=0;strokeWidth=5;strokeColor=#0000f0;entryX=0.75;entryY=0;entryDx=0;entryDy=0;exitX=0.75;exitY=1;exitDx=0;exitDy=0;" edge="1" parent="1">
          <mxGeometry width="50" height="50" relative="1" as="geometry">
            <mxPoint x="-1245" y="870" as="sourcePoint" />
            <mxPoint x="-1245" y="750" as="targetPoint" />
          </mxGeometry>
        </mxCell>
        <mxCell id="6KPUGdE8I9idsuVsTaAl-19" value="" style="endArrow=classic;html=1;rounded=0;strokeWidth=5;strokeColor=#0000f0;entryX=0.25;entryY=0;entryDx=0;entryDy=0;exitX=0.25;exitY=1;exitDx=0;exitDy=0;" edge="1" parent="1">
          <mxGeometry width="50" height="50" relative="1" as="geometry">
            <mxPoint x="-1275" y="870" as="sourcePoint" />
            <mxPoint x="-1275" y="750" as="targetPoint" />
          </mxGeometry>
        </mxCell>
        <mxCell id="6KPUGdE8I9idsuVsTaAl-20" value="" style="endArrow=classic;html=1;rounded=0;strokeWidth=5;strokeColor=#0000f0;entryX=0.25;entryY=0;entryDx=0;entryDy=0;exitX=0.25;exitY=1;exitDx=0;exitDy=0;" edge="1" parent="1">
          <mxGeometry width="50" height="50" relative="1" as="geometry">
            <mxPoint x="-1755" y="870" as="sourcePoint" />
            <mxPoint x="-1755" y="750" as="targetPoint" />
          </mxGeometry>
        </mxCell>
        <mxCell id="6KPUGdE8I9idsuVsTaAl-21" value="" style="endArrow=classic;html=1;rounded=0;strokeWidth=5;strokeColor=#0000f0;entryX=0.75;entryY=0;entryDx=0;entryDy=0;exitX=0.75;exitY=1;exitDx=0;exitDy=0;" edge="1" parent="1">
          <mxGeometry width="50" height="50" relative="1" as="geometry">
            <mxPoint x="-1725" y="870" as="sourcePoint" />
            <mxPoint x="-1725" y="750" as="targetPoint" />
          </mxGeometry>
        </mxCell>
        <mxCell id="6KPUGdE8I9idsuVsTaAl-22" value="" style="endArrow=classic;html=1;rounded=0;strokeWidth=5;strokeColor=#0000f0;entryX=0.75;entryY=0;entryDx=0;entryDy=0;exitX=0.75;exitY=1;exitDx=0;exitDy=0;" edge="1" parent="1">
          <mxGeometry width="50" height="50" relative="1" as="geometry">
            <mxPoint x="-1185" y="870" as="sourcePoint" />
            <mxPoint x="-1185" y="750" as="targetPoint" />
          </mxGeometry>
        </mxCell>
        <mxCell id="6KPUGdE8I9idsuVsTaAl-23" value="" style="endArrow=classic;html=1;rounded=0;strokeWidth=5;strokeColor=#0000f0;entryX=0.25;entryY=0;entryDx=0;entryDy=0;exitX=0.25;exitY=1;exitDx=0;exitDy=0;" edge="1" parent="1">
          <mxGeometry width="50" height="50" relative="1" as="geometry">
            <mxPoint x="-1215" y="870" as="sourcePoint" />
            <mxPoint x="-1215" y="750" as="targetPoint" />
          </mxGeometry>
        </mxCell>
        <mxCell id="6KPUGdE8I9idsuVsTaAl-24" value="" style="endArrow=classic;html=1;rounded=0;strokeWidth=5;strokeColor=#f000f0;entryX=0.5;entryY=0;entryDx=0;entryDy=0;exitX=0.5;exitY=1;exitDx=0;exitDy=0;" edge="1" parent="1">
          <mxGeometry width="50" height="50" relative="1" as="geometry">
            <mxPoint x="-1590" y="870" as="sourcePoint" />
            <mxPoint x="-1590" y="750" as="targetPoint" />
          </mxGeometry>
        </mxCell>
        <mxCell id="6KPUGdE8I9idsuVsTaAl-25" value="" style="endArrow=classic;html=1;rounded=0;strokeWidth=5;strokeColor=#f000f0;exitX=0.5;exitY=0;exitDx=0;exitDy=0;entryX=0.5;entryY=0;entryDx=0;entryDy=0;" edge="1" parent="1" source="6KPUGdE8I9idsuVsTaAl-6">
          <mxGeometry width="50" height="50" relative="1" as="geometry">
            <mxPoint x="-2140" y="680" as="sourcePoint" />
            <mxPoint x="-1770" y="90" as="targetPoint" />
          </mxGeometry>
        </mxCell>
        <mxCell id="6KPUGdE8I9idsuVsTaAl-77" value="&lt;font style=&quot;font-size: 48px;&quot;&gt;All Other Active Controllers&lt;/font&gt;" style="rounded=1;whiteSpace=wrap;html=1;verticalAlign=bottom;" vertex="1" parent="1">
          <mxGeometry x="-2700" y="390" width="780" height="420" as="geometry" />
        </mxCell>
        <mxCell id="6KPUGdE8I9idsuVsTaAl-78" value="" style="endArrow=classic;html=1;rounded=0;strokeWidth=5;strokeColor=#00c800;exitX=0.25;exitY=0;exitDx=0;exitDy=0;entryX=0.5;entryY=0;entryDx=0;entryDy=0;" edge="1" parent="1" source="6KPUGdE8I9idsuVsTaAl-86">
          <mxGeometry width="50" height="50" relative="1" as="geometry">
            <mxPoint x="-2240" y="330" as="sourcePoint" />
            <mxPoint x="-2340" y="330" as="targetPoint" />
          </mxGeometry>
        </mxCell>
        <mxCell id="6KPUGdE8I9idsuVsTaAl-79" value="" style="endArrow=classic;html=1;rounded=0;strokeWidth=5;strokeColor=#f000f0;exitX=0.5;exitY=0;exitDx=0;exitDy=0;entryX=0.5;entryY=0;entryDx=0;entryDy=0;" edge="1" parent="1" source="6KPUGdE8I9idsuVsTaAl-89">
          <mxGeometry width="50" height="50" relative="1" as="geometry">
            <mxPoint x="-1700" y="720" as="sourcePoint" />
            <mxPoint x="-2040" y="330" as="targetPoint" />
          </mxGeometry>
        </mxCell>
        <mxCell id="6KPUGdE8I9idsuVsTaAl-80" value="" style="endArrow=classic;html=1;rounded=0;strokeWidth=5;strokeColor=#0000f0;entryX=0.25;entryY=0;entryDx=0;entryDy=0;exitX=0.25;exitY=1;exitDx=0;exitDy=0;" edge="1" parent="1">
          <mxGeometry width="50" height="50" relative="1" as="geometry">
            <mxPoint x="-2625" y="870" as="sourcePoint" />
            <mxPoint x="-2625" y="750" as="targetPoint" />
          </mxGeometry>
        </mxCell>
        <mxCell id="6KPUGdE8I9idsuVsTaAl-81" value="&lt;font style=&quot;font-size: 24px;&quot;&gt;&lt;strike&gt;&lt;i&gt;raid0&lt;/i&gt;&lt;/strike&gt; &lt;u&gt;&lt;b&gt;flakey&lt;/b&gt;&lt;/u&gt;&lt;/font&gt;" style="rounded=0;whiteSpace=wrap;html=1;" vertex="1" parent="1">
          <mxGeometry x="-2370" y="570" width="120" height="60" as="geometry" />
        </mxCell>
        <mxCell id="6KPUGdE8I9idsuVsTaAl-82" value="&lt;font style=&quot;font-size: 24px;&quot;&gt;Leg&lt;/font&gt;" style="rounded=1;whiteSpace=wrap;html=1;" vertex="1" parent="1">
          <mxGeometry x="-2640" y="690" width="120" height="60" as="geometry" />
        </mxCell>
        <mxCell id="6KPUGdE8I9idsuVsTaAl-83" value="&lt;font style=&quot;font-size: 24px;&quot;&gt;Remote&lt;br&gt;Leg&lt;/font&gt;" style="rounded=0;whiteSpace=wrap;html=1;" vertex="1" parent="1">
          <mxGeometry x="-2460" y="690" width="120" height="60" as="geometry" />
        </mxCell>
        <mxCell id="6KPUGdE8I9idsuVsTaAl-84" value="" style="endArrow=classic;html=1;rounded=0;strokeWidth=5;strokeColor=#808080;exitX=0.5;exitY=0;exitDx=0;exitDy=0;entryX=0.5;entryY=1;entryDx=0;entryDy=0;" edge="1" parent="1" source="6KPUGdE8I9idsuVsTaAl-82" target="6KPUGdE8I9idsuVsTaAl-81">
          <mxGeometry width="50" height="50" relative="1" as="geometry">
            <mxPoint x="-1640" y="340" as="sourcePoint" />
            <mxPoint x="-1590" y="290" as="targetPoint" />
          </mxGeometry>
        </mxCell>
        <mxCell id="6KPUGdE8I9idsuVsTaAl-85" value="" style="endArrow=classic;html=1;rounded=0;strokeWidth=5;strokeColor=#808080;exitX=0.5;exitY=0;exitDx=0;exitDy=0;entryX=0.5;entryY=1;entryDx=0;entryDy=0;" edge="1" parent="1" source="6KPUGdE8I9idsuVsTaAl-83" target="6KPUGdE8I9idsuVsTaAl-81">
          <mxGeometry width="50" height="50" relative="1" as="geometry">
            <mxPoint x="-2300" y="550" as="sourcePoint" />
            <mxPoint x="-2250" y="500" as="targetPoint" />
          </mxGeometry>
        </mxCell>
        <mxCell id="6KPUGdE8I9idsuVsTaAl-86" value="&lt;font style=&quot;font-size: 24px;&quot;&gt;nvmeof target&lt;/font&gt;" style="rounded=0;whiteSpace=wrap;html=1;" vertex="1" parent="1">
          <mxGeometry x="-2370" y="450" width="120" height="60" as="geometry" />
        </mxCell>
        <mxCell id="6KPUGdE8I9idsuVsTaAl-87" value="" style="endArrow=classic;html=1;rounded=0;strokeWidth=5;strokeColor=#808080;exitX=0.5;exitY=0;exitDx=0;exitDy=0;entryX=0.5;entryY=1;entryDx=0;entryDy=0;" edge="1" parent="1" source="6KPUGdE8I9idsuVsTaAl-81" target="6KPUGdE8I9idsuVsTaAl-86">
          <mxGeometry width="50" height="50" relative="1" as="geometry">
            <mxPoint x="-2380" y="490" as="sourcePoint" />
            <mxPoint x="-2330" y="440" as="targetPoint" />
          </mxGeometry>
        </mxCell>
        <mxCell id="6KPUGdE8I9idsuVsTaAl-88" value="" style="endArrow=classic;html=1;rounded=0;strokeWidth=5;strokeColor=#f000f0;entryX=1;entryY=0;entryDx=0;entryDy=0;exitX=0;exitY=1;exitDx=0;exitDy=0;" edge="1" parent="1">
          <mxGeometry width="50" height="50" relative="1" as="geometry">
            <mxPoint x="-2220" y="870" as="sourcePoint" />
            <mxPoint x="-2220" y="750" as="targetPoint" />
          </mxGeometry>
        </mxCell>
        <mxCell id="6KPUGdE8I9idsuVsTaAl-89" value="&lt;font style=&quot;font-size: 24px;&quot;&gt;Leg&lt;br&gt;&lt;/font&gt;" style="rounded=1;whiteSpace=wrap;html=1;" vertex="1" parent="1">
          <mxGeometry x="-2100" y="690" width="120" height="60" as="geometry" />
        </mxCell>
        <mxCell id="6KPUGdE8I9idsuVsTaAl-90" value="&lt;font style=&quot;font-size: 24px;&quot;&gt;Remote&lt;br&gt;Leg&lt;br&gt;&lt;/font&gt;" style="rounded=0;whiteSpace=wrap;html=1;" vertex="1" parent="1">
          <mxGeometry x="-2280" y="690" width="120" height="60" as="geometry" />
        </mxCell>
        <mxCell id="6KPUGdE8I9idsuVsTaAl-91" value="" style="endArrow=classic;html=1;rounded=0;strokeWidth=5;strokeColor=#808080;exitX=0.5;exitY=0;exitDx=0;exitDy=0;entryX=0.5;entryY=1;entryDx=0;entryDy=0;" edge="1" parent="1" source="6KPUGdE8I9idsuVsTaAl-89" target="6KPUGdE8I9idsuVsTaAl-81">
          <mxGeometry width="50" height="50" relative="1" as="geometry">
            <mxPoint x="-2110" y="570" as="sourcePoint" />
            <mxPoint x="-2060" y="520" as="targetPoint" />
          </mxGeometry>
        </mxCell>
        <mxCell id="6KPUGdE8I9idsuVsTaAl-92" value="" style="endArrow=classic;html=1;rounded=0;strokeWidth=5;strokeColor=#808080;exitX=0.5;exitY=0;exitDx=0;exitDy=0;entryX=0.5;entryY=1;entryDx=0;entryDy=0;" edge="1" parent="1" source="6KPUGdE8I9idsuVsTaAl-90" target="6KPUGdE8I9idsuVsTaAl-81">
          <mxGeometry width="50" height="50" relative="1" as="geometry">
            <mxPoint x="-2110" y="580" as="sourcePoint" />
            <mxPoint x="-2060" y="530" as="targetPoint" />
          </mxGeometry>
        </mxCell>
        <mxCell id="6KPUGdE8I9idsuVsTaAl-93" value="" style="endArrow=classic;html=1;rounded=0;strokeWidth=5;strokeColor=#0000f0;entryX=0.75;entryY=0;entryDx=0;entryDy=0;exitX=0.75;exitY=1;exitDx=0;exitDy=0;" edge="1" parent="1">
          <mxGeometry width="50" height="50" relative="1" as="geometry">
            <mxPoint x="-2595" y="870" as="sourcePoint" />
            <mxPoint x="-2595" y="750" as="targetPoint" />
          </mxGeometry>
        </mxCell>
        <mxCell id="6KPUGdE8I9idsuVsTaAl-94" value="" style="endArrow=classic;html=1;rounded=0;strokeWidth=5;strokeColor=#0000f0;entryX=0.75;entryY=0;entryDx=0;entryDy=0;exitX=0.75;exitY=1;exitDx=0;exitDy=0;" edge="1" parent="1">
          <mxGeometry width="50" height="50" relative="1" as="geometry">
            <mxPoint x="-2055" y="870" as="sourcePoint" />
            <mxPoint x="-2055" y="750" as="targetPoint" />
          </mxGeometry>
        </mxCell>
        <mxCell id="6KPUGdE8I9idsuVsTaAl-95" value="" style="endArrow=classic;html=1;rounded=0;strokeWidth=5;strokeColor=#0000f0;entryX=0.25;entryY=0;entryDx=0;entryDy=0;exitX=0.25;exitY=1;exitDx=0;exitDy=0;" edge="1" parent="1">
          <mxGeometry width="50" height="50" relative="1" as="geometry">
            <mxPoint x="-2085" y="870" as="sourcePoint" />
            <mxPoint x="-2085" y="750" as="targetPoint" />
          </mxGeometry>
        </mxCell>
        <mxCell id="6KPUGdE8I9idsuVsTaAl-96" value="" style="endArrow=classic;html=1;rounded=0;strokeWidth=5;strokeColor=#0000f0;entryX=0.25;entryY=0;entryDx=0;entryDy=0;exitX=0.25;exitY=1;exitDx=0;exitDy=0;" edge="1" parent="1">
          <mxGeometry width="50" height="50" relative="1" as="geometry">
            <mxPoint x="-2565" y="870" as="sourcePoint" />
            <mxPoint x="-2565" y="750" as="targetPoint" />
          </mxGeometry>
        </mxCell>
        <mxCell id="6KPUGdE8I9idsuVsTaAl-97" value="" style="endArrow=classic;html=1;rounded=0;strokeWidth=5;strokeColor=#0000f0;entryX=0.75;entryY=0;entryDx=0;entryDy=0;exitX=0.75;exitY=1;exitDx=0;exitDy=0;" edge="1" parent="1">
          <mxGeometry width="50" height="50" relative="1" as="geometry">
            <mxPoint x="-2535" y="870" as="sourcePoint" />
            <mxPoint x="-2535" y="750" as="targetPoint" />
          </mxGeometry>
        </mxCell>
        <mxCell id="6KPUGdE8I9idsuVsTaAl-98" value="" style="endArrow=classic;html=1;rounded=0;strokeWidth=5;strokeColor=#0000f0;entryX=0.75;entryY=0;entryDx=0;entryDy=0;exitX=0.75;exitY=1;exitDx=0;exitDy=0;" edge="1" parent="1">
          <mxGeometry width="50" height="50" relative="1" as="geometry">
            <mxPoint x="-1995" y="870" as="sourcePoint" />
            <mxPoint x="-1995" y="750" as="targetPoint" />
          </mxGeometry>
        </mxCell>
        <mxCell id="6KPUGdE8I9idsuVsTaAl-99" value="" style="endArrow=classic;html=1;rounded=0;strokeWidth=5;strokeColor=#0000f0;entryX=0.25;entryY=0;entryDx=0;entryDy=0;exitX=0.25;exitY=1;exitDx=0;exitDy=0;" edge="1" parent="1">
          <mxGeometry width="50" height="50" relative="1" as="geometry">
            <mxPoint x="-2025" y="870" as="sourcePoint" />
            <mxPoint x="-2025" y="750" as="targetPoint" />
          </mxGeometry>
        </mxCell>
        <mxCell id="6KPUGdE8I9idsuVsTaAl-100" value="" style="endArrow=classic;html=1;rounded=0;strokeWidth=5;strokeColor=#f000f0;entryX=0.5;entryY=0;entryDx=0;entryDy=0;exitX=0.5;exitY=1;exitDx=0;exitDy=0;" edge="1" parent="1">
          <mxGeometry width="50" height="50" relative="1" as="geometry">
            <mxPoint x="-2400" y="870" as="sourcePoint" />
            <mxPoint x="-2400" y="750" as="targetPoint" />
          </mxGeometry>
        </mxCell>
        <mxCell id="6KPUGdE8I9idsuVsTaAl-101" value="" style="endArrow=classic;html=1;rounded=0;strokeWidth=5;strokeColor=#f000f0;exitX=0.5;exitY=0;exitDx=0;exitDy=0;entryX=0.5;entryY=0;entryDx=0;entryDy=0;" edge="1" parent="1" source="6KPUGdE8I9idsuVsTaAl-82">
          <mxGeometry width="50" height="50" relative="1" as="geometry">
            <mxPoint x="-2950" y="680" as="sourcePoint" />
            <mxPoint x="-2580" y="330" as="targetPoint" />
          </mxGeometry>
        </mxCell>
        <mxCell id="6KPUGdE8I9idsuVsTaAl-104" value="" style="endArrow=classic;html=1;rounded=0;strokeWidth=5;strokeColor=#f00000;exitX=0.75;exitY=0;exitDx=0;exitDy=0;entryX=0.5;entryY=0;entryDx=0;entryDy=0;" edge="1" parent="1" source="6KPUGdE8I9idsuVsTaAl-86">
          <mxGeometry width="50" height="50" relative="1" as="geometry">
            <mxPoint x="-2930" y="460" as="sourcePoint" />
            <mxPoint x="-2280" y="330" as="targetPoint" />
          </mxGeometry>
        </mxCell>
        <mxCell id="6KPUGdE8I9idsuVsTaAl-106" value="" style="endArrow=classic;html=1;rounded=0;exitX=0;exitY=0.5;exitDx=0;exitDy=0;entryX=1;entryY=0.5;entryDx=0;entryDy=0;strokeColor=#ff8000;" edge="1" parent="1">
          <mxGeometry width="50" height="50" relative="1" as="geometry">
            <mxPoint x="-2340" y="360" as="sourcePoint" />
            <mxPoint x="-2280" y="360" as="targetPoint" />
          </mxGeometry>
        </mxCell>
        <mxCell id="6KPUGdE8I9idsuVsTaAl-107" value="&lt;font color=&quot;#ff8000&quot; style=&quot;font-size: 20px;&quot;&gt;1&lt;/font&gt;" style="edgeLabel;html=1;align=center;verticalAlign=middle;resizable=0;points=[];" vertex="1" connectable="0" parent="6KPUGdE8I9idsuVsTaAl-106">
          <mxGeometry x="-0.0667" y="-4" relative="1" as="geometry">
            <mxPoint y="-4" as="offset" />
          </mxGeometry>
        </mxCell>
        <mxCell id="6KPUGdE8I9idsuVsTaAl-109" value="&lt;font style=&quot;font-size: 24px;&quot;&gt;&lt;b&gt;&lt;u&gt;tmp raid0&lt;/u&gt;&lt;/b&gt;&lt;/font&gt;" style="rounded=0;whiteSpace=wrap;html=1;" vertex="1" parent="1">
          <mxGeometry x="-1560" y="570" width="120" height="60" as="geometry" />
        </mxCell>
        <mxCell id="6KPUGdE8I9idsuVsTaAl-8" value="" style="endArrow=classic;html=1;rounded=0;strokeWidth=5;strokeColor=#808080;exitX=0.5;exitY=0;exitDx=0;exitDy=0;entryX=0.5;entryY=1;entryDx=0;entryDy=0;" edge="1" parent="1" source="6KPUGdE8I9idsuVsTaAl-6" target="6KPUGdE8I9idsuVsTaAl-109">
          <mxGeometry width="50" height="50" relative="1" as="geometry">
            <mxPoint x="-830" y="340" as="sourcePoint" />
            <mxPoint x="-780" y="290" as="targetPoint" />
          </mxGeometry>
        </mxCell>
        <mxCell id="6KPUGdE8I9idsuVsTaAl-9" value="" style="endArrow=classic;html=1;rounded=0;strokeWidth=5;strokeColor=#808080;exitX=0.5;exitY=0;exitDx=0;exitDy=0;entryX=0.5;entryY=1;entryDx=0;entryDy=0;" edge="1" parent="1" source="6KPUGdE8I9idsuVsTaAl-7" target="6KPUGdE8I9idsuVsTaAl-109">
          <mxGeometry width="50" height="50" relative="1" as="geometry">
            <mxPoint x="-1490" y="550" as="sourcePoint" />
            <mxPoint x="-1440" y="500" as="targetPoint" />
          </mxGeometry>
        </mxCell>
        <mxCell id="6KPUGdE8I9idsuVsTaAl-16" value="" style="endArrow=classic;html=1;rounded=0;strokeWidth=5;strokeColor=#808080;exitX=0.5;exitY=0;exitDx=0;exitDy=0;entryX=0.5;entryY=1;entryDx=0;entryDy=0;" edge="1" parent="1" source="6KPUGdE8I9idsuVsTaAl-14" target="6KPUGdE8I9idsuVsTaAl-109">
          <mxGeometry width="50" height="50" relative="1" as="geometry">
            <mxPoint x="-1300" y="580" as="sourcePoint" />
            <mxPoint x="-1250" y="530" as="targetPoint" />
          </mxGeometry>
        </mxCell>
        <mxCell id="6KPUGdE8I9idsuVsTaAl-15" value="" style="endArrow=classic;html=1;rounded=0;strokeWidth=5;strokeColor=#808080;exitX=0.5;exitY=0;exitDx=0;exitDy=0;entryX=0.5;entryY=1;entryDx=0;entryDy=0;" edge="1" parent="1" source="6KPUGdE8I9idsuVsTaAl-13" target="6KPUGdE8I9idsuVsTaAl-109">
          <mxGeometry width="50" height="50" relative="1" as="geometry">
            <mxPoint x="-1300" y="570" as="sourcePoint" />
            <mxPoint x="-1250" y="520" as="targetPoint" />
          </mxGeometry>
        </mxCell>
        <mxCell id="6KPUGdE8I9idsuVsTaAl-110" value="&lt;span style=&quot;font-size: 24px;&quot;&gt;&lt;b&gt;&lt;u&gt;src dev&lt;/u&gt;&lt;/b&gt;&lt;/span&gt;" style="rounded=0;whiteSpace=wrap;html=1;" vertex="1" parent="1">
          <mxGeometry x="-1380" y="570" width="120" height="60" as="geometry" />
        </mxCell>
        <mxCell id="6KPUGdE8I9idsuVsTaAl-111" value="&lt;span style=&quot;font-size: 24px;&quot;&gt;&lt;b&gt;&lt;u&gt;clone&lt;/u&gt;&lt;/b&gt;&lt;/span&gt;" style="rounded=0;whiteSpace=wrap;html=1;" vertex="1" parent="1">
          <mxGeometry x="-1560" y="450" width="120" height="60" as="geometry" />
        </mxCell>
        <mxCell id="6KPUGdE8I9idsuVsTaAl-112" value="" style="endArrow=classic;html=1;rounded=0;strokeWidth=5;strokeColor=#808080;exitX=0.5;exitY=0;exitDx=0;exitDy=0;entryX=0.5;entryY=1;entryDx=0;entryDy=0;" edge="1" parent="1" source="6KPUGdE8I9idsuVsTaAl-110" target="6KPUGdE8I9idsuVsTaAl-111">
          <mxGeometry width="50" height="50" relative="1" as="geometry">
            <mxPoint x="-860" y="320" as="sourcePoint" />
            <mxPoint x="-810" y="270" as="targetPoint" />
          </mxGeometry>
        </mxCell>
        <mxCell id="6KPUGdE8I9idsuVsTaAl-113" value="" style="endArrow=classic;html=1;rounded=0;strokeWidth=5;strokeColor=#808080;exitX=0.5;exitY=0;exitDx=0;exitDy=0;entryX=0.5;entryY=1;entryDx=0;entryDy=0;" edge="1" parent="1" source="6KPUGdE8I9idsuVsTaAl-109" target="6KPUGdE8I9idsuVsTaAl-111">
          <mxGeometry width="50" height="50" relative="1" as="geometry">
            <mxPoint x="-850" y="330" as="sourcePoint" />
            <mxPoint x="-800" y="280" as="targetPoint" />
          </mxGeometry>
        </mxCell>
        <mxCell id="EK6KpNQJIU4OniFnHXBM-5" value="" style="endArrow=classic;html=1;rounded=0;strokeWidth=5;strokeColor=#00f0f0;entryX=1;entryY=0.5;entryDx=0;entryDy=0;exitX=1;exitY=0.5;exitDx=0;exitDy=0;" parent="1" edge="1" target="6KPUGdE8I9idsuVsTaAl-110">
          <mxGeometry width="50" height="50" relative="1" as="geometry">
            <mxPoint x="-1050" y="600" as="sourcePoint" />
            <mxPoint x="-970" y="620" as="targetPoint" />
          </mxGeometry>
        </mxCell>
        <mxCell id="EK6KpNQJIU4OniFnHXBM-3" value="" style="endArrow=classic;html=1;rounded=0;strokeWidth=5;strokeColor=#808080;exitX=0.5;exitY=0;exitDx=0;exitDy=0;entryX=0.5;entryY=1;entryDx=0;entryDy=0;" parent="1" edge="1" target="6KPUGdE8I9idsuVsTaAl-5" source="6KPUGdE8I9idsuVsTaAl-111">
          <mxGeometry width="50" height="50" relative="1" as="geometry">
            <mxPoint x="-870" y="310" as="sourcePoint" />
            <mxPoint x="-860" y="370" as="targetPoint" />
          </mxGeometry>
        </mxCell>
        <mxCell id="6KPUGdE8I9idsuVsTaAl-123" value="&lt;font style=&quot;&quot;&gt;&lt;font size=&quot;1&quot; color=&quot;#ff8000&quot;&gt;&lt;b style=&quot;font-size: 24px;&quot;&gt;(1) Set all other Active Controlers ANA group to Inaccessible&lt;/b&gt;&lt;/font&gt;&lt;br&gt;&lt;/font&gt;" style="text;html=1;align=center;verticalAlign=middle;whiteSpace=wrap;rounded=0;" vertex="1" parent="1">
          <mxGeometry x="-2490" y="220" width="390" height="40" as="geometry" />
        </mxCell>
        <mxCell id="6KPUGdE8I9idsuVsTaAl-124" value="&lt;font style=&quot;&quot;&gt;&lt;font size=&quot;1&quot; color=&quot;#ff8000&quot;&gt;&lt;b style=&quot;font-size: 24px;&quot;&gt;(2) Connect to the&lt;br&gt;source device&lt;/b&gt;&lt;/font&gt;&lt;br&gt;&lt;/font&gt;" style="text;html=1;align=center;verticalAlign=middle;whiteSpace=wrap;rounded=0;" vertex="1" parent="1">
          <mxGeometry x="-1250" y="670" width="390" height="40" as="geometry" />
        </mxCell>
        <mxCell id="6KPUGdE8I9idsuVsTaAl-125" value="&lt;font style=&quot;&quot;&gt;&lt;font size=&quot;1&quot; color=&quot;#ff8000&quot;&gt;&lt;b style=&quot;font-size: 24px;&quot;&gt;(3) Suspend &lt;br&gt;the raid0&lt;/b&gt;&lt;/font&gt;&lt;br&gt;&lt;/font&gt;" style="text;html=1;align=center;verticalAlign=middle;whiteSpace=wrap;rounded=0;" vertex="1" parent="1">
          <mxGeometry x="-1870" y="220" width="390" height="40" as="geometry" />
        </mxCell>
        <mxCell id="6KPUGdE8I9idsuVsTaAl-126" value="&lt;font style=&quot;&quot;&gt;&lt;font size=&quot;1&quot; color=&quot;#ff8000&quot;&gt;&lt;b style=&quot;font-size: 24px;&quot;&gt;(4) Create a new&lt;br&gt;tmp raid0&lt;/b&gt;&lt;/font&gt;&lt;br&gt;&lt;/font&gt;" style="text;html=1;align=center;verticalAlign=middle;whiteSpace=wrap;rounded=0;" vertex="1" parent="1">
          <mxGeometry x="-1520" y="480" width="390" height="40" as="geometry" />
        </mxCell>
        <mxCell id="6KPUGdE8I9idsuVsTaAl-127" value="&lt;font style=&quot;&quot;&gt;&lt;font size=&quot;1&quot; color=&quot;#ff8000&quot;&gt;&lt;b style=&quot;font-size: 24px;&quot;&gt;(5) Create clone&amp;nbsp;&lt;/b&gt;&lt;/font&gt;&lt;br&gt;&lt;/font&gt;" style="text;html=1;align=center;verticalAlign=middle;whiteSpace=wrap;rounded=0;" vertex="1" parent="1">
          <mxGeometry x="-1515" y="410" width="390" height="40" as="geometry" />
        </mxCell>
        <mxCell id="6KPUGdE8I9idsuVsTaAl-128" value="&lt;font style=&quot;&quot;&gt;&lt;font size=&quot;1&quot; color=&quot;#ff8000&quot;&gt;&lt;b style=&quot;font-size: 24px;&quot;&gt;(6) run blkdiscard&lt;br&gt;to trim&lt;/b&gt;&lt;/font&gt;&lt;br&gt;&lt;/font&gt;" style="text;html=1;align=center;verticalAlign=middle;whiteSpace=wrap;rounded=0;" vertex="1" parent="1">
          <mxGeometry x="-1530" y="310" width="390" height="40" as="geometry" />
        </mxCell>
        <mxCell id="6KPUGdE8I9idsuVsTaAl-129" value="&lt;font style=&quot;&quot;&gt;&lt;font size=&quot;1&quot; color=&quot;#ff8000&quot;&gt;&lt;b style=&quot;font-size: 24px;&quot;&gt;(7) reload the old &lt;br&gt;raid0 to linear&lt;br&gt;and resume&lt;/b&gt;&lt;/font&gt;&lt;br&gt;&lt;/font&gt;" style="text;html=1;align=center;verticalAlign=middle;whiteSpace=wrap;rounded=0;" vertex="1" parent="1">
          <mxGeometry x="-1550" y="180" width="390" height="40" as="geometry" />
        </mxCell>
        <mxCell id="6KPUGdE8I9idsuVsTaAl-135" value="" style="endArrow=classic;html=1;rounded=0;exitX=0.5;exitY=0;exitDx=0;exitDy=0;entryX=1;entryY=0.75;entryDx=0;entryDy=0;strokeColor=#ff8000;" edge="1" parent="1" source="6KPUGdE8I9idsuVsTaAl-124" target="6KPUGdE8I9idsuVsTaAl-110">
          <mxGeometry width="50" height="50" relative="1" as="geometry">
            <mxPoint x="-1052.5" y="890" as="sourcePoint" />
            <mxPoint x="-957.5" y="976" as="targetPoint" />
          </mxGeometry>
        </mxCell>
        <mxCell id="6KPUGdE8I9idsuVsTaAl-137" value="" style="endArrow=classic;html=1;rounded=0;exitX=0.5;exitY=1;exitDx=0;exitDy=0;entryX=0;entryY=0.25;entryDx=0;entryDy=0;strokeColor=#ff8000;" edge="1" parent="1" source="6KPUGdE8I9idsuVsTaAl-125" target="6KPUGdE8I9idsuVsTaAl-5">
          <mxGeometry width="50" height="50" relative="1" as="geometry">
            <mxPoint x="-1190" y="920" as="sourcePoint" />
            <mxPoint x="-1095" y="1006" as="targetPoint" />
          </mxGeometry>
        </mxCell>
        <mxCell id="6KPUGdE8I9idsuVsTaAl-138" value="" style="endArrow=classic;html=1;rounded=0;entryX=1;entryY=0.25;entryDx=0;entryDy=0;strokeColor=#ff8000;" edge="1" parent="1" source="6KPUGdE8I9idsuVsTaAl-126" target="6KPUGdE8I9idsuVsTaAl-109">
          <mxGeometry width="50" height="50" relative="1" as="geometry">
            <mxPoint x="-1230" y="950" as="sourcePoint" />
            <mxPoint x="-1135" y="1036" as="targetPoint" />
          </mxGeometry>
        </mxCell>
        <mxCell id="6KPUGdE8I9idsuVsTaAl-139" value="" style="endArrow=classic;html=1;rounded=0;strokeColor=#ff8000;entryX=0.75;entryY=0;entryDx=0;entryDy=0;" edge="1" parent="1" source="6KPUGdE8I9idsuVsTaAl-129" target="6KPUGdE8I9idsuVsTaAl-5">
          <mxGeometry width="50" height="50" relative="1" as="geometry">
            <mxPoint x="-1367.5" y="1000" as="sourcePoint" />
            <mxPoint x="-1020" y="90" as="targetPoint" />
          </mxGeometry>
        </mxCell>
        <mxCell id="6KPUGdE8I9idsuVsTaAl-140" value="" style="endArrow=classic;html=1;rounded=0;exitX=0.5;exitY=1;exitDx=0;exitDy=0;strokeColor=#ff8000;" edge="1" parent="1" source="6KPUGdE8I9idsuVsTaAl-128" target="6KPUGdE8I9idsuVsTaAl-111">
          <mxGeometry width="50" height="50" relative="1" as="geometry">
            <mxPoint x="-1285" y="1020" as="sourcePoint" />
            <mxPoint x="-1190" y="1106" as="targetPoint" />
          </mxGeometry>
        </mxCell>
        <mxCell id="6KPUGdE8I9idsuVsTaAl-141" value="" style="endArrow=classic;html=1;rounded=0;entryX=1;entryY=0.25;entryDx=0;entryDy=0;strokeColor=#ff8000;exitX=0.5;exitY=1;exitDx=0;exitDy=0;" edge="1" parent="1" source="6KPUGdE8I9idsuVsTaAl-127" target="6KPUGdE8I9idsuVsTaAl-111">
          <mxGeometry width="50" height="50" relative="1" as="geometry">
            <mxPoint x="-1000" y="820" as="sourcePoint" />
            <mxPoint x="-1135" y="1066" as="targetPoint" />
          </mxGeometry>
        </mxCell>
        <mxCell id="6KPUGdE8I9idsuVsTaAl-142" value="" style="endArrow=classic;html=1;rounded=0;exitX=0.5;exitY=1;exitDx=0;exitDy=0;entryX=0;entryY=0.25;entryDx=0;entryDy=0;strokeColor=#ff8000;" edge="1" parent="1" source="6KPUGdE8I9idsuVsTaAl-146" target="6KPUGdE8I9idsuVsTaAl-111">
          <mxGeometry width="50" height="50" relative="1" as="geometry">
            <mxPoint x="-1445" y="1050" as="sourcePoint" />
            <mxPoint x="-1350" y="1136" as="targetPoint" />
          </mxGeometry>
        </mxCell>
        <mxCell id="6KPUGdE8I9idsuVsTaAl-143" value="" style="endArrow=classic;html=1;rounded=0;exitX=0.5;exitY=1;exitDx=0;exitDy=0;strokeColor=#ff8000;" edge="1" parent="1" source="6KPUGdE8I9idsuVsTaAl-123">
          <mxGeometry width="50" height="50" relative="1" as="geometry">
            <mxPoint x="-2235" y="80" as="sourcePoint" />
            <mxPoint x="-2280" y="340" as="targetPoint" />
          </mxGeometry>
        </mxCell>
        <mxCell id="6KPUGdE8I9idsuVsTaAl-144" value="" style="endArrow=classic;html=1;rounded=0;exitX=0.5;exitY=0;exitDx=0;exitDy=0;entryX=0.038;entryY=0.955;entryDx=0;entryDy=0;strokeColor=#ff8000;entryPerimeter=0;" edge="1" parent="1" source="Cx0IqI09Y8lKUOxxlhVQ-1" target="6KPUGdE8I9idsuVsTaAl-1">
          <mxGeometry width="50" height="50" relative="1" as="geometry">
            <mxPoint x="-1985" y="1110" as="sourcePoint" />
            <mxPoint x="-1890" y="1196" as="targetPoint" />
          </mxGeometry>
        </mxCell>
        <mxCell id="6KPUGdE8I9idsuVsTaAl-5" value="&lt;font style=&quot;font-size: 24px;&quot;&gt;&lt;strike&gt;&lt;i&gt;raid0&lt;/i&gt;&lt;/strike&gt; &lt;b&gt;&lt;u&gt;linear&lt;/u&gt;&lt;/b&gt;&lt;/font&gt;" style="rounded=0;whiteSpace=wrap;html=1;" vertex="1" parent="1">
          <mxGeometry x="-1560" y="330" width="120" height="60" as="geometry" />
        </mxCell>
        <mxCell id="6KPUGdE8I9idsuVsTaAl-146" value="&lt;font style=&quot;&quot;&gt;&lt;font color=&quot;#ff8000&quot;&gt;&lt;span style=&quot;font-size: 24px;&quot;&gt;&lt;b&gt;(8) Check the clone status, &lt;br&gt;if it is&amp;nbsp; synced, &lt;br&gt;reverse the previous steps&lt;/b&gt;&lt;/span&gt;&lt;/font&gt;&lt;br&gt;&lt;/font&gt;" style="text;html=1;align=center;verticalAlign=middle;whiteSpace=wrap;rounded=0;" vertex="1" parent="1">
          <mxGeometry x="-2210" y="110" width="390" height="40" as="geometry" />
        </mxCell>
      </root>
    </mxGraphModel>
  </diagram>
</mxfile>
